<svg xmlns="http://www.w3.org/2000/svg" version="1.1" xmlns:xlink="http://www.w3.org/1999/xlink" xmlns:svgjs="http://svgjs.com/svgjs" width="1440" height="560" preserveAspectRatio="none" viewBox="0 0 1440 560"><g mask="url(&quot;#SvgjsMask1043&quot;)" fill="none"><rect width="1440" height="560" x="0" y="0" fill="#1e3266"></rect><path d="M1488 560L0 560 L0 336.02Q-13.37 250.64, 72 237.27Q99.55 192.82, 144 220.38Q196.91 201.29, 216 254.2Q285.94 204.14, 336 274.08Q381.3 247.38, 408 292.67Q445.82 210.49, 528 248.31Q572.64 220.96, 600 265.6Q689.77 235.37, 720 325.14Q756.89 242.03, 840 278.93Q881.62 200.55, 960 242.16Q985.4 195.56, 1032 220.96Q1091.41 208.37, 1104 267.78Q1124.87 216.64, 1176 237.51Q1263.85 205.36, 1296 293.21Q1341.65 266.86, 1368 312.51Q1398.28 222.78, 1488 253.06z" fill="#182f5d"></path><path d="M1464 560L0 560 L0 384.19Q21.03 333.22, 72 354.25Q93.43 303.68, 144 325.11Q195.22 256.33, 264 307.54Q354.98 278.52, 384 369.51Q460.37 325.88, 504 402.24Q533.08 311.32, 624 340.4Q707.7 304.1, 744 387.79Q774.48 298.27, 864 328.75Q915.14 259.89, 984 311.03Q1069.41 276.44, 1104 361.86Q1146.68 284.54, 1224 327.22Q1323.11 306.33, 1344 405.43Q1391.9 333.34, 1464 381.24z" fill="#25467d"></path><path d="M1512 560L0 560 L0 474.37Q58.11 412.48, 120 470.59Q115.37 393.96, 192 389.33Q283.55 408.88, 264 500.43Q314.22 430.65, 384 480.88Q408.01 384.89, 504 408.9Q556.85 341.75, 624 394.6Q687.1 385.7, 696 448.8Q745.92 426.73, 768 476.65Q782.9 419.55, 840 434.46Q885.42 359.88, 960 405.31Q1005.1 378.41, 1032 423.51Q1094.91 414.42, 1104 477.34Q1120.24 421.58, 1176 437.83Q1204.09 393.91, 1248 422Q1298.05 400.05, 1320 450.1Q1327.87 385.97, 1392 393.84Q1462.61 344.45, 1512 415.06z" fill="#356cb1"></path><path d="M1512 560L0 560 L0 548.42Q35.13 511.54, 72 546.67Q106.84 461.5, 192 496.34Q245.45 477.79, 264 531.24Q327.13 522.37, 336 585.49Q380.63 510.12, 456 554.75Q464.67 491.42, 528 500.1Q581 433.1, 648 486.09Q699.02 465.11, 720 516.13Q794.22 518.35, 792 592.56Q829.42 509.98, 912 547.4Q916.5 479.9, 984 484.41Q1049.4 429.82, 1104 495.22Q1154.59 473.81, 1176 524.39Q1215.8 444.19, 1296 483.99Q1345.24 461.24, 1368 510.48Q1439.34 509.82, 1440 581.16Q1451.69 520.85, 1512 532.53z" fill="white"></path></g><defs><mask id="SvgjsMask1043"><rect width="1440" height="560" fill="#ffffff"></rect></mask></defs></svg>